
        <svg xmlns="http://www.w3.org/2000/svg" xmlns:xlink="http://www.w3.org/1999/xlink" version="1.1" width="3171.4285714285716" 
        height="931.3344560355335" viewBox="0 0 3171.4285714285716 931.3344560355335">
			
			<g transform="scale(8.571428571428571) translate(10, 10)">
				<defs id="SvgjsDefs2272"></defs><g id="SvgjsG2273" featureKey="DhFEHj-0" transform="matrix(4.655493463411228,0,0,4.655493463411228,-1.8621956094346728,-27.374299877724695)" fill="#0168a8"><path d="M9.48 16.52 l0.88 0 c-0.42 1.22 -0.62 2.36 -0.64 3.48 c-3.22 -0.06 -6.2 -0.06 -9.28 0 l0 -0.76 c1.1 -0.08 1.44 -0.24 1.44 -0.74 l0 -9.42 c0 -0.5 -0.38 -0.66 -1.48 -0.74 l0 -0.76 c1.9 0.06 3.88 0.06 5.78 0 l0 0.76 c-1.1 0.08 -1.48 0.24 -1.48 0.74 l0 9.76 c0 0.18 0.12 0.3 0.3 0.3 l1.26 0 c1.46 0 2.1 -0.28 2.58 -1.28 z M19.92 17.5 c0 0.74 0.48 0.9 1.26 0.76 l0 0.84 c-1.94 0.48 -2.86 1.16 -3.36 1.16 c-0.44 0 -0.64 -0.24 -0.6 -0.74 l0.12 -1.48 c-0.42 1.04 -1.28 2.22 -3.08 2.22 c-1.52 0 -3 -0.76 -3 -2.56 c0 -1.92 1.4 -3.1 5.96 -4.04 l-0.02 -1.22 c-0.02 -1.44 -0.22 -1.94 -0.94 -1.94 c-2.7 0 -1.08 3.08 -3.26 3.08 c-0.78 0 -1.14 -0.44 -1.14 -1.06 c0 -1.5 1.98 -2.72 4.54 -2.72 c2.2 0 3.52 0.52 3.52 2.9 l0 4.8 z M15.28 19.08 c1.16 0 1.78 -1.52 1.94 -2.22 l0 -2.5 c-2.96 0.62 -3.22 2.28 -3.22 3.12 c0 0.94 0.48 1.6 1.28 1.6 z M33.44 9.98 l4.46 0 l0 0.76 l-0.38 0.06 c-0.76 0.12 -1.24 0.42 -1.54 1.32 l-2.58 7.88 l-1.76 0 l-2.22 -6.34 l-2.08 6.34 l-1.76 0 l-2.76 -7.88 c-0.28 -0.82 -0.54 -1.22 -1.22 -1.32 l-0.42 -0.06 l0 -0.76 l5.1 0 l0 0.78 l-0.44 0.04 c-0.56 0.06 -0.7 0.48 -0.42 1.32 l1.84 5.54 l1.66 -5.42 l-0.04 -0.12 c-0.28 -0.82 -0.52 -1.28 -1.04 -1.32 l-0.64 -0.04 l0 -0.78 l5.12 0 l0 0.78 l-0.42 0.04 c-0.56 0.06 -0.7 0.48 -0.42 1.32 l1.84 5.54 l1.7 -5.54 c0.28 -0.88 -0.3 -1.28 -0.94 -1.32 l-0.64 -0.04 l0 -0.78 z M42.96 15.26 l0 3.26 c0 0.5 0.34 0.64 1.44 0.72 l0 0.76 c-1.9 -0.06 -3.8 -0.06 -5.7 0 l0 -0.76 c1.1 -0.08 1.44 -0.22 1.44 -0.72 l0 -9.34 c0 -0.5 -0.34 -0.76 -1.32 -0.84 l0 -0.76 c1.94 0.08 3.86 0 4.98 0 c4.38 0 5.68 1.46 5.68 3.52 c0 2.1 -1.72 3.5 -6.08 4.1 z M42.96 14.42 l0.4 -0.04 c2.56 -0.26 3.44 -1.52 3.44 -3.28 c0 -1.6 -0.74 -2.72 -2.54 -2.72 l-1.3 0 l0 6.04 z M59.040000000000006 17.5 c0 0.74 0.48 0.9 1.26 0.76 l0 0.84 c-1.94 0.48 -2.86 1.16 -3.36 1.16 c-0.44 0 -0.64 -0.24 -0.6 -0.74 l0.12 -1.48 c-0.42 1.04 -1.28 2.22 -3.08 2.22 c-1.52 0 -3 -0.76 -3 -2.56 c0 -1.92 1.4 -3.1 5.96 -4.04 l-0.02 -1.22 c-0.02 -1.44 -0.22 -1.94 -0.94 -1.94 c-2.7 0 -1.08 3.08 -3.26 3.08 c-0.78 0 -1.14 -0.44 -1.14 -1.06 c0 -1.5 1.98 -2.72 4.54 -2.72 c2.2 0 3.52 0.52 3.52 2.9 l0 4.8 z M54.400000000000006 19.08 c1.16 0 1.78 -1.52 1.94 -2.22 l0 -2.5 c-2.96 0.62 -3.22 2.28 -3.22 3.12 c0 0.94 0.48 1.6 1.28 1.6 z M63.44 8.7 c-0.78 0 -1.42 -0.64 -1.42 -1.42 s0.64 -1.4 1.42 -1.4 s1.4 0.62 1.4 1.4 s-0.62 1.42 -1.4 1.42 z M64.94 18.5 c0 0.5 0.54 0.66 1.26 0.74 l0 0.76 c-1.72 -0.06 -3.46 -0.06 -5.18 0 l0 -0.76 c0.68 -0.08 1.22 -0.24 1.22 -0.74 l0 -6.02 c0 -0.74 -0.48 -0.9 -1.24 -0.84 l0 -0.76 c2.1 -0.34 2.94 -1.14 3.5 -1.14 c0.34 0 0.56 0.2 0.56 0.56 c0 0.82 -0.12 1.58 -0.12 2.84 l0 5.36 z M73.89999999999999 9.78 c0.98 0 1.68 0.56 1.68 1.36 c0 0.84 -0.66 1.24 -1.2 1.24 c-0.9 0 -1.06 -0.7 -1.78 -0.7 c-1.2 0 -1.52 1.46 -1.66 1.98 l0 4.84 c0 0.5 0.54 0.66 1.26 0.74 l0 0.76 c-1.72 -0.06 -3.46 -0.06 -5.18 0 l0 -0.76 c0.68 -0.08 1.22 -0.24 1.22 -0.74 l0 -5.92 c0 -0.74 -0.48 -0.9 -1.24 -0.78 l0 -0.76 c1.98 -0.4 2.86 -1.32 3.38 -1.32 c0.42 0 0.62 0.28 0.56 0.76 l-0.3 2.06 c0.72 -1.86 1.72 -2.76 3.26 -2.76 z"></path></g><g id="SvgjsG2274" featureKey="aJrulJ-0" transform="matrix(0.6792358182472076,0,0,0.6792358182472076,68.7637910180764,73.27778802693479)" fill="#2586c9"><path d="M10.72 5.84 l0 1.8 l-6.98 0 l0 4.44 l6.5 0 l0 1.8 l-6.5 0 l0 6.12 l-1.92 0 l0 -14.16 l8.9 0 z M18.844 5.84 l0 14.16 l-1.92 0 l0 -14.16 l1.92 0 z M28.628000000000004 5.84 l7.8 11.64 l0.04 0 l0 -11.64 l1.92 0 l0 14.16 l-2.44 0 l-7.88 -11.64 l-0.04 0 l0 11.64 l-1.92 0 l0 -14.16 l2.52 0 z M50.37200000000001 5.84 c1.5067 0 2.8134 0.31 3.92 0.93 s1.9533 1.47 2.54 2.55 s0.88 2.28 0.88 3.6 s-0.32666 2.5234 -0.98 3.61 s-1.5667 1.9367 -2.74 2.55 s-2.48 0.92 -3.92 0.92 l-4.74 0 l0 -14.16 l5.04 0 z M49.772000000000006 18.2 c1.08 0 2.07 -0.21002 2.97 -0.63002 s1.6133 -1.0233 2.14 -1.81 s0.79 -1.7333 0.79 -2.84 c0 -1.6 -0.49666 -2.88 -1.49 -3.84 s-2.31 -1.44 -3.95 -1.44 l-2.98 0 l0 10.56 l2.52 0 z M66.016 5.84 l0 14.16 l-1.92 0 l0 -14.16 l1.92 0 z M75.80000000000001 5.84 l7.8 11.64 l0.04 0 l0 -11.64 l1.92 0 l0 14.16 l-2.44 0 l-7.88 -11.64 l-0.04 0 l0 11.64 l-1.92 0 l0 -14.16 l2.52 0 z M99.34400000000001 5.48 c2.36 0 4.1134 0.6133 5.26 1.84 l-1.36 1.46 c-1.0533 -1 -2.36 -1.5 -3.92 -1.5 s-2.84 0.53666 -3.84 1.61 s-1.5 2.4166 -1.5 4.03 c0 1.6267 0.53 2.9734 1.59 4.04 s2.3634 1.6 3.91 1.6 c1.4667 0 2.6266 -0.24666 3.48 -0.74 l0 -3.94 l-3.14 0 l0 -1.8 l5.06 0 l0 6.98 c-0.69334 0.41334 -1.53 0.73334 -2.51 0.96 s-1.93 0.34 -2.85 0.34 c-2.2266 0 -4.0466 -0.69334 -5.46 -2.08 s-2.12 -3.1734 -2.12 -5.36 c0 -2.1066 0.69666 -3.8734 2.09 -5.3 s3.1634 -2.14 5.31 -2.14 z M127.372 5.84 l6.06 14.16 l-2.24 0 l-1.42 -3.5 l-6.74 0 l-1.4 3.5 l-2.24 0 l6.24 -14.16 l1.74 0 z M123.712 14.82 l5.36 0 l-2.64 -6.5 l-0.04 0 z M150 5.84 l0 12.36 l6.5 0 l0 1.8 l-8.42 0 l0 -14.16 l1.92 0 z M168.26399999999998 5.84 l6.06 14.16 l-2.24 0 l-1.42 -3.5 l-6.74 0 l-1.4 3.5 l-2.24 0 l6.24 -14.16 l1.74 0 z M164.60399999999998 14.82 l5.36 0 l-2.64 -6.5 l-0.04 0 z M186.468 8.44 l-3.42 11.56 l-2.02 0 l-4.14 -14.16 l2 0 l3.12 11.32 l0.04 0 l3.34 -11.32 l2.2 0 l3.34 11.32 l0.04 0 l3.12 -11.32 l2 0 l-4.12 14.16 l-2.02 0 l-3.44 -11.56 l-0.04 0 z M201.992 5.84 l3.86 6.22 l3.98 -6.22 l2.34 0 l-5.36 8.12 l0 6.04 l-1.92 0 l0 -6.04 l-5.36 -8.12 l2.46 0 z M226.556 5.84 l0 1.8 l-7.22 0 l0 4.22 l6.72 0 l0 1.8 l-6.72 0 l0 4.54 l7.58 0 l0 1.8 l-9.5 0 l0 -14.16 l9.14 0 z M238.34 5.84 c1.3867 0 2.4734 0.34666 3.26 1.04 s1.18 1.6667 1.18 2.92 c0 0.94666 -0.32334 1.7733 -0.97 2.48 s-1.4767 1.1267 -2.49 1.26 l-0.02 0 l4.02 6.46 l-2.4 0 l-3.6 -6.24 l-2.14 0 l0 6.24 l-1.92 0 l0 -14.16 l5.08 0 z M237.78 12.08 c1 0 1.7433 -0.18336 2.23 -0.55002 s0.73 -0.94332 0.73 -1.73 c0 -1.52 -0.98666 -2.28 -2.96 -2.28 l-2.6 0 l0 4.56 l2.6 0 z M251.564 17.72 l-1.68 4.92 l-1.64 0 l1.38 -4.92 l1.94 0 z M270.19200000000006 5.84 l4.5 10.72 l0.08 0 l4.46 -10.72 l2.86 0 l0 14.16 l-1.92 0 l0 -11.64 l-0.04 0 l-4.78 11.64 l-1.28 0 l-4.78 -11.64 l-0.04 0 l0 11.64 l-1.92 0 l0 -14.16 l2.86 0 z M295.3960000000001 5.84 l6.06 14.16 l-2.24 0 l-1.42 -3.5 l-6.74 0 l-1.4 3.5 l-2.24 0 l6.24 -14.16 l1.74 0 z M291.73600000000005 14.82 l5.36 0 l-2.64 -6.5 l-0.04 0 z M311.6400000000001 5.84 c1.5067 0 2.8134 0.31 3.92 0.93 s1.9533 1.47 2.54 2.55 s0.88 2.28 0.88 3.6 s-0.32666 2.5234 -0.98 3.61 s-1.5667 1.9367 -2.74 2.55 s-2.48 0.92 -3.92 0.92 l-4.74 0 l0 -14.16 l5.04 0 z M311.0400000000001 18.2 c1.08 0 2.07 -0.21002 2.97 -0.63002 s1.6133 -1.0233 2.14 -1.81 s0.79 -1.7333 0.79 -2.84 c0 -1.6 -0.49666 -2.88 -1.49 -3.84 s-2.31 -1.44 -3.95 -1.44 l-2.98 0 l0 10.56 l2.52 0 z M334.5040000000001 5.84 l0 1.8 l-7.22 0 l0 4.22 l6.72 0 l0 1.8 l-6.72 0 l0 4.54 l7.58 0 l0 1.8 l-9.5 0 l0 -14.16 l9.14 0 z M359.5320000000001 5.84 l0 1.8 l-7.22 0 l0 4.22 l6.72 0 l0 1.8 l-6.72 0 l0 4.54 l7.58 0 l0 1.8 l-9.5 0 l0 -14.16 l9.14 0 z M372.4160000000001 5.84 l6.06 14.16 l-2.24 0 l-1.42 -3.5 l-6.74 0 l-1.4 3.5 l-2.24 0 l6.24 -14.16 l1.74 0 z M368.7560000000001 14.82 l5.36 0 l-2.64 -6.5 l-0.04 0 z M388.0000000000001 5.48 c1.84 0 3.2 0.54006 4.08 1.6201 l-1.56 1.42 c-0.24 -0.37334 -0.58 -0.67334 -1.02 -0.9 s-0.94666 -0.34 -1.52 -0.34 c-0.82666 0 -1.49 0.20334 -1.99 0.61 s-0.75 0.93 -0.75 1.57 c0 1.0667 0.70666 1.8133 2.12 2.24 l1.78 0.58 c1 0.32 1.7633 0.76666 2.29 1.34 s0.79 1.36 0.79 2.36 c0 1.3067 -0.46334 2.3634 -1.39 3.17 s-2.1034 1.21 -3.53 1.21 c-2.04 0 -3.5466 -0.65334 -4.52 -1.96 l1.58 -1.36 c0.30666 0.48 0.72666 0.85334 1.26 1.12 s1.1133 0.4 1.74 0.4 c0.78666 0 1.4533 -0.22666 2 -0.68 s0.82 -1.0133 0.82 -1.68 c0 -0.49334 -0.16666 -0.90668 -0.5 -1.24 s-0.93334 -0.63334 -1.8 -0.9 l-1.26 -0.42 c-1.2667 -0.42666 -2.1534 -0.97 -2.66 -1.63 s-0.76 -1.51 -0.76 -2.55 c0 -1.1067 0.44666 -2.0466 1.34 -2.82 s2.0466 -1.16 3.46 -1.16 z M399.12400000000014 5.84 l3.86 6.22 l3.98 -6.22 l2.34 0 l-5.36 8.12 l0 6.04 l-1.92 0 l0 -6.04 l-5.36 -8.12 l2.46 0 z M412.7280000000001 17.48 c0.37334 0 0.68664 0.13342 0.93998 0.40008 s0.38 0.57332 0.38 0.91998 c0 0.38666 -0.13334 0.70332 -0.4 0.94998 s-0.57332 0.37 -0.91998 0.37 s-0.65332 -0.12666 -0.91998 -0.38 s-0.4 -0.56668 -0.4 -0.94002 s0.13334 -0.68668 0.4 -0.94002 s0.57332 -0.38 0.91998 -0.38 z"></path></g>
			</g>
		</svg>
	